<?xml version="1.0" encoding="UTF-8" standalone="no"?>
<!-- Created with Inkscape (http://www.inkscape.org/) -->
<svg
   xmlns:dc="http://purl.org/dc/elements/1.1/"
   xmlns:cc="http://creativecommons.org/ns#"
   xmlns:rdf="http://www.w3.org/1999/02/22-rdf-syntax-ns#"
   xmlns:svg="http://www.w3.org/2000/svg"
   xmlns="http://www.w3.org/2000/svg"
   xmlns:sodipodi="http://sodipodi.sourceforge.net/DTD/sodipodi-0.dtd"
   xmlns:inkscape="http://www.inkscape.org/namespaces/inkscape"
   width="128.00000px"
   height="128.00000px"
   id="svg2"
   sodipodi:version="0.32"
   inkscape:version="0.46+devel"
   sodipodi:docname="marsh.svg"
   inkscape:export-filename="/home/nicu/Desktop/marsh.svg.png"
   inkscape:export-xdpi="90.000000"
   inkscape:export-ydpi="90.000000"
   inkscape:output_extension="org.inkscape.output.svg.inkscape">
  <defs
     id="defs3" />
  <sodipodi:namedview
     id="base"
     pagecolor="#ffffff"
     bordercolor="#666666"
     borderopacity="1.0"
     inkscape:pageopacity="0.0"
     inkscape:pageshadow="2"
     inkscape:zoom="1"
     inkscape:cx="55.756277"
     inkscape:cy="76.27885"
     inkscape:document-units="px"
     inkscape:current-layer="layer1"
     inkscape:window-width="1151"
     inkscape:window-height="791"
     inkscape:window-x="595"
     inkscape:window-y="164"
     showgrid="false" />
  <g
     inkscape:label="Layer 1"
     inkscape:groupmode="layer"
     id="layer1">
    <path
       sodipodi:nodetypes="cccccccccccccccccc"
       id="path3048"
       d="m 48.962933,39.507562 c -1.36535,0.643627 -2.449107,1.988519 -3.891255,7.125049 -0.52618,-1.626542 -1.05773,-4.257263 -2.359164,-5.077212 -0.200322,2.964046 0.236311,5.679035 0.804076,8.342749 l 0.63795,2.132545 c 0.53883,-0.421144 0.890393,-0.700569 1.66247,-0.223468 0.952855,-0.821819 1.796513,-0.0068 2.095693,-0.176966 2.53442,0.04653 3.373767,-0.565927 4.212261,-0.336203 3.902033,0.641491 3.106605,0.372291 5.287803,0.957817 1.70034,1.254227 2.34604,1.517726 2.593427,3.5532 l 0.01099,0.09481 c 2.002317,-3.061492 1.459637,-4.226449 1.633907,-6.254261 -1.725301,-0.447364 -2.578633,0.647338 -3.520903,1.584755 l 0.02444,-3.593124 c -2.199018,-1.150295 -4.030157,0.654218 -5.660529,0.76381 0.266304,-1.605997 0.08473,-3.30884 -0.696969,-4.089452 -1.255965,-0.483797 -2.776528,4.678488 -3.776446,6.562203 0.01875,-1.961834 2.108122,-9.944473 0.942251,-11.366251 z"
       style="font-size:medium;font-style:normal;font-variant:normal;font-weight:normal;font-stretch:normal;text-indent:0;text-align:start;text-decoration:none;line-height:normal;letter-spacing:normal;word-spacing:normal;text-transform:none;direction:ltr;block-progression:tb;writing-mode:lr-tb;text-anchor:start;color:#000000;fill:#00a100;fill-opacity:1;fill-rule:nonzero;stroke:none;stroke-width:1.5;marker:none;visibility:visible;display:inline;overflow:visible;enable-background:accumulate;font-family:Bitstream Vera Sans;-inkscape-font-specification:Bitstream Vera Sans" />
    <path
       sodipodi:nodetypes="ccccc"
       id="path3038"
       d="m 31.84375,54.8125 c -4.665445,1.56578 -11.09903,1.67808 -5.59375,7.25 5.712644,4.501541 14.578341,7.094739 21.3125,3.40625 5.290434,-0.80808 18.408503,-7.899234 10.21875,-13.40625 -8.349412,-2.566444 -17.806817,0.429238 -25.9375,2.75 z"
       style="font-size:medium;font-style:normal;font-variant:normal;font-weight:normal;font-stretch:normal;text-indent:0;text-align:start;text-decoration:none;line-height:normal;letter-spacing:normal;word-spacing:normal;text-transform:none;direction:ltr;block-progression:tb;writing-mode:lr-tb;text-anchor:start;color:#000000;fill:#228fff;fill-opacity:1;fill-rule:nonzero;stroke:none;stroke-width:1.5;marker:none;visibility:visible;display:inline;overflow:visible;enable-background:accumulate;font-family:Bitstream Vera Sans;-inkscape-font-specification:Bitstream Vera Sans" />
    <path
       style="font-size:medium;font-style:normal;font-variant:normal;font-weight:normal;font-stretch:normal;text-indent:0;text-align:start;text-decoration:none;line-height:normal;letter-spacing:normal;word-spacing:normal;text-transform:none;direction:ltr;block-progression:tb;writing-mode:lr-tb;text-anchor:start;color:#000000;fill:#5c2700;fill-opacity:1;fill-rule:nonzero;stroke:none;stroke-width:1.5;marker:none;visibility:visible;display:inline;overflow:visible;enable-background:accumulate;font-family:Bitstream Vera Sans;-inkscape-font-specification:Bitstream Vera Sans"
       d="m 31.84375,54.8125 c -4.665445,1.56578 -11.09903,1.67808 -5.59375,7.25 5.712644,4.501541 14.578341,7.094739 21.3125,3.40625 5.290434,-0.80808 18.408503,-7.899234 10.21875,-13.40625 -8.349412,-2.566444 -17.806817,0.429238 -25.9375,2.75 z M 57.375,52.53125 c 7.413543,5.888702 -7.450435,10.759654 -10.1875,12.375 -6.188208,3.125291 -14.740718,0.06623 -19.9375,-3.96875 -4.303265,-3.640568 0.858127,-4.633504 4.375,-5.6875 7.773956,-1.645502 17.80188,-5.54726 25.75,-2.71875 z"
       id="path3032"
       sodipodi:nodetypes="cccccccccc" />
    <path
       sodipodi:nodetypes="ccccc"
       id="path3028"
       d="m 88.5,71.875 c -5.798914,-0.561941 -15.202447,-0.848697 -9.53125,6.625 4.379289,4.715273 9.744315,9.342079 16.34375,7.78125 4.91771,-1.463632 12.64458,-4.417594 12.9375,-10.5625 C 108.57718,68.461199 92.757059,71.862358 88.5,71.875 z"
       style="font-size:medium;font-style:normal;font-variant:normal;font-weight:normal;font-stretch:normal;text-indent:0;text-align:start;text-decoration:none;line-height:normal;letter-spacing:normal;word-spacing:normal;text-transform:none;direction:ltr;block-progression:tb;writing-mode:lr-tb;text-anchor:start;color:#000000;fill:#228fff;fill-opacity:1;fill-rule:nonzero;stroke:none;stroke-width:1.5;marker:none;visibility:visible;display:inline;overflow:visible;enable-background:accumulate;font-family:Bitstream Vera Sans;-inkscape-font-specification:Bitstream Vera Sans" />
    <path
       style="font-size:medium;font-style:normal;font-variant:normal;font-weight:normal;font-stretch:normal;text-indent:0;text-align:start;text-decoration:none;line-height:normal;letter-spacing:normal;word-spacing:normal;text-transform:none;direction:ltr;block-progression:tb;writing-mode:lr-tb;text-anchor:start;color:#000000;fill:#5c2700;fill-opacity:1;fill-rule:nonzero;stroke:none;stroke-width:1.5;marker:none;visibility:visible;display:inline;overflow:visible;enable-background:accumulate;font-family:Bitstream Vera Sans;-inkscape-font-specification:Bitstream Vera Sans"
       d="m 88.5,71.875 c -5.798914,-0.561941 -15.202447,-0.848697 -9.53125,6.625 4.379289,4.715273 9.744315,9.342079 16.34375,7.78125 4.91771,-1.463632 12.64458,-4.417594 12.9375,-10.5625 C 108.57718,68.461199 92.757059,71.862358 88.5,71.875 z m -0.125,0.375 c 6.524186,0.373379 14.73741,-2.417883 18.375,3.53125 -0.80406,5.215194 -7.178322,7.30926 -11.65625,8.53125 C 89.126489,86.004187 84.055322,81.582822 80.125,77.5 c -5.07238,-6.154283 4.32753,-5.267107 8.25,-5.25 z"
       id="path3022"
       sodipodi:nodetypes="cccccccccc" />
    <path
       sodipodi:nodetypes="ccccc"
       id="path3012"
       d="m 80.1875,35.633883 c -6.312455,-0.02493 -13.62965,0.432334 -18.125,5.272367 -5.452649,8.895132 7.190778,15.460373 13.793813,16.195464 C 85.918546,58.183504 100.14714,61.373602 97.8125,46.09375 93.944696,34.530666 90.793853,36.353302 80.1875,35.633883 z"
       style="font-size:medium;font-style:normal;font-variant:normal;font-weight:normal;font-stretch:normal;text-indent:0;text-align:start;text-decoration:none;line-height:normal;letter-spacing:normal;word-spacing:normal;text-transform:none;direction:ltr;block-progression:tb;writing-mode:lr-tb;text-anchor:start;color:#000000;fill:#228fff;fill-opacity:1;fill-rule:nonzero;stroke:none;stroke-width:1.5;marker:none;visibility:visible;display:inline;overflow:visible;enable-background:accumulate;font-family:Bitstream Vera Sans;-inkscape-font-specification:Bitstream Vera Sans" />
    <path
       style="font-size:medium;font-style:normal;font-variant:normal;font-weight:normal;font-stretch:normal;text-indent:0;text-align:start;text-decoration:none;line-height:normal;letter-spacing:normal;word-spacing:normal;text-transform:none;direction:ltr;block-progression:tb;writing-mode:lr-tb;text-anchor:start;color:#000000;fill:#5c2700;fill-opacity:1;fill-rule:nonzero;stroke:none;stroke-width:1.5;marker:none;visibility:visible;display:inline;overflow:visible;enable-background:accumulate;font-family:Bitstream Vera Sans;-inkscape-font-specification:Bitstream Vera Sans"
       d="m 80.1875,35.633883 c -6.312455,-0.02493 -13.62965,0.432334 -18.125,5.272367 -5.452649,8.895132 7.190778,15.460373 13.793813,16.195464 C 85.918546,58.183504 100.14714,61.373602 97.8125,46.09375 93.944696,34.530666 90.793853,36.353302 80.1875,35.633883 z M 80.0625,36.25 C 89.523684,35.835115 93.41684,37.526957 96.90533,46.385723 100.4132,60.037437 85.010654,54.755031 77.15625,54.1875 71.57138,54.458473 58.913589,49.069495 63.25,41.84375 67.604518,37.50763 74.108142,36.231637 80.0625,36.25 z"
       id="path3006"
       sodipodi:nodetypes="cccccccccc" />
    <path
       sodipodi:nodetypes="ccccccccc"
       id="path2917"
       d="m 53.975299,67.230865 c -7.539691,-0.608599 -14.517264,3.503395 -21.77003,4.984891 -8.502233,-2.693742 -14.650992,-2.719015 -17.832548,0.251091 -3.983693,4.11084 -2.329627,10.083761 -0.58468,14.89838 0.793574,5.874032 3.490842,9.631347 9.025825,11.594643 4.337823,0.47707 10.205094,-2.197405 16.135175,-5.391333 9.172431,-4.098569 19.063309,5.505733 27.896519,0.946141 9.692666,-8.031103 1.637569,-10.483516 -0.656638,-17.547921 -1.450175,-6.514982 -5.955379,-8.710122 -12.213623,-9.735892 z"
       style="font-size:medium;font-style:normal;font-variant:normal;font-weight:normal;font-stretch:normal;text-indent:0;text-align:start;text-decoration:none;line-height:normal;letter-spacing:normal;word-spacing:normal;text-transform:none;direction:ltr;block-progression:tb;writing-mode:lr-tb;text-anchor:start;color:#000000;fill:#228fff;fill-opacity:1;fill-rule:nonzero;stroke:none;stroke-width:1.5;marker:none;visibility:visible;display:inline;overflow:visible;enable-background:accumulate;font-family:Bitstream Vera Sans;-inkscape-font-specification:Bitstream Vera Sans" />
    <path
       style="font-size:medium;font-style:normal;font-variant:normal;font-weight:normal;font-stretch:normal;text-indent:0;text-align:start;text-decoration:none;line-height:normal;letter-spacing:normal;word-spacing:normal;text-transform:none;direction:ltr;block-progression:tb;writing-mode:lr-tb;text-anchor:start;color:#000000;fill:#5c2700;fill-opacity:1;fill-rule:nonzero;stroke:none;stroke-width:1.5;marker:none;visibility:visible;display:inline;overflow:visible;enable-background:accumulate;font-family:Bitstream Vera Sans;-inkscape-font-specification:Bitstream Vera Sans"
       d="m 53.975299,67.230865 c -7.539691,-0.608599 -14.517264,3.503395 -21.77003,4.984891 -8.502233,-2.693742 -14.650992,-2.719015 -17.832548,0.251091 -3.983693,4.11084 -2.329627,10.083761 -0.58468,14.89838 0.0051,0.01845 0.0083,0.03101 0.01336,0.04941 0.730162,5.317739 3.346883,10.531963 9.012465,11.545233 4.337823,0.47707 10.205094,-2.197406 16.135175,-5.391334 9.172431,-4.098569 19.063309,5.505734 27.896519,0.946141 9.692666,-8.031103 1.637569,-10.483516 -0.656638,-17.547921 -1.450175,-6.514982 -5.95538,-8.710122 -12.213623,-9.735892 z m -0.09233,0.756677 c 6.261212,0.818415 9.865886,3.180691 11.564775,9.17961 1.834218,6.311638 7.998634,10.310123 0.964638,16.706418 C 57.015115,96.684693 51.39965,89.86626 41.262681,91.967349 36.546506,94.636146 29.030674,97.644753 23.5672,97.706333 18.097656,96.997506 15.969823,91.846475 14.529199,87.16483 c -0.0042,-0.01129 -0.009,-0.0224 -0.01429,-0.03325 -1.778458,-4.551102 -2.938891,-10.001163 0.627512,-13.955555 2.871624,-2.680773 8.519357,-3.273474 16.959662,-0.577117 7.334549,-1.681781 14.187903,-4.355455 21.780886,-4.611366 z"
       id="path2884"
       sodipodi:nodetypes="cccccccccccccccccccc" />
    <path
       style="fill:#00a100;fill-opacity:1;stroke:none"
       d="m 49.755574,85.854293 c 0,0 -12.400652,-11.80715 -23.463204,-8.063709 -8.342985,2.823171 -12.495689,11.495689 0.232233,13.970563 12.727922,2.474874 19.92767,-2.56066 19.92767,-2.56066 l -12.960155,-4.053301 16.263456,0.707107 z"
       id="path2919"
       sodipodi:nodetypes="cssccc" />
    <path
       style="font-size:medium;font-style:normal;font-variant:normal;font-weight:normal;font-stretch:normal;text-indent:0;text-align:start;text-decoration:none;line-height:normal;letter-spacing:normal;word-spacing:normal;text-transform:none;direction:ltr;block-progression:tb;writing-mode:lr-tb;text-anchor:start;color:#000000;fill:#5c2700;fill-opacity:1;fill-rule:nonzero;stroke:none;stroke-width:1.5;marker:none;visibility:visible;display:inline;overflow:visible;enable-background:accumulate;font-family:Bitstream Vera Sans;-inkscape-font-specification:Bitstream Vera Sans"
       d="M 26.0625,77.84375 C 15.300743,81.818491 15.731164,90.293458 26.25,92.75 c 3.0184,1.149869 17.342311,2.198187 20.4375,-4.25 l -12.25,-3.34375 15.28125,1.4375 C 51.749085,84.142752 44.40028,80.881772 42.53125,79.75 37.439781,76.800788 31.743647,76.294582 26.0625,77.84375 z m 15.75,3.21875 c 2.623577,1.453629 5.826714,3.37146 7.125,4.4375 C 43.746477,85.321013 37.375202,84.040194 32.753208,85.029469 L 44.53125,89.375 c -5.587483,2.740953 -11.868154,2.527016 -17.875,1.65625 -9.947885,-1.658741 -8.404787,-8.965989 -0.125,-12.53125 5.252052,-1.712806 10.559987,0.157516 15.28125,2.5625 z"
       id="path2921"
       sodipodi:nodetypes="cccccccccccccc" />
    <path
       sodipodi:nodetypes="cssccc"
       id="path2927"
       d="m 104.66016,43.157089 c 0,0 -10.026966,-9.547068 -18.971965,-6.520183 -6.746002,2.28277 -10.10381,9.295226 0.187779,11.296369 10.29159,2.001143 16.113186,-2.070508 16.113186,-2.070508 l -10.479367,-3.277433 13.150367,0.571755 z"
       style="fill:#00a100;fill-opacity:1;stroke:none" />
    <path
       sodipodi:nodetypes="cccccccccccccc"
       id="path2929"
       d="m 85.502326,36.679895 c -8.701781,3.213911 -8.35375,10.066631 0.151609,12.05295 2.440629,0.929766 14.02271,1.777419 16.525425,-3.43648 l -9.905146,-2.703702 12.356166,1.162339 c 1.6417,-1.981837 -4.30043,-4.618612 -5.811692,-5.533744 -4.116879,-2.384685 -8.72268,-2.793995 -13.316362,-1.541363 z m 12.735192,2.602629 c 2.121382,1.17538 4.711382,2.726107 5.761162,3.58809 -4.197379,-0.144726 -9.349088,-1.180375 -13.086357,-0.380464 l 9.523537,3.513726 c -4.517952,2.216289 -9.5964,2.043303 -14.453438,1.339216 -8.043697,-1.341231 -6.795973,-7.249752 -0.101073,-10.132564 4.246724,-1.384947 8.538633,0.127365 12.356169,2.071996 z"
       style="font-size:medium;font-style:normal;font-variant:normal;font-weight:normal;font-stretch:normal;text-indent:0;text-align:start;text-decoration:none;line-height:normal;letter-spacing:normal;word-spacing:normal;text-transform:none;direction:ltr;block-progression:tb;writing-mode:lr-tb;text-anchor:start;color:#000000;fill:#5c2700;fill-opacity:1;fill-rule:nonzero;stroke:none;stroke-width:1.5;marker:none;visibility:visible;display:inline;overflow:visible;enable-background:accumulate;font-family:Bitstream Vera Sans;-inkscape-font-specification:Bitstream Vera Sans" />
    <path
       style="fill:#00a100;fill-opacity:1;stroke:none"
       d="m 84.967016,76.448312 c 0,0 4.349774,8.933008 11.123455,9.139519 5.108479,0.155743 9.123989,-3.718181 2.704995,-7.643277 -6.418991,-3.925095 -11.354209,-2.646222 -11.354209,-2.646222 l 6.225383,4.830397 -8.699624,-3.680417 z"
       id="path2931"
       sodipodi:nodetypes="cssccc" />
    <path
       style="font-size:medium;font-style:normal;font-variant:normal;font-weight:normal;font-stretch:normal;text-indent:0;text-align:start;text-decoration:none;line-height:normal;letter-spacing:normal;word-spacing:normal;text-transform:none;direction:ltr;block-progression:tb;writing-mode:lr-tb;text-anchor:start;color:#000000;fill:#5c2700;fill-opacity:1;fill-rule:nonzero;stroke:none;stroke-width:1.5;marker:none;visibility:visible;display:inline;overflow:visible;enable-background:accumulate;font-family:Bitstream Vera Sans;-inkscape-font-specification:Bitstream Vera Sans"
       d="m 96.226234,85.605508 c 6.657006,0.01979 8.140506,-4.675537 2.918943,-8.142972 -1.408159,-1.236925 -8.984048,-4.709803 -11.973781,-1.831 l 5.983047,4.300675 -8.017548,-3.878502 c -1.600674,0.921213 1.734224,4.183612 2.521108,5.177766 2.170698,2.635409 5.165268,4.065023 8.568231,4.374033 z m -7.911435,-4.942016 c -1.131927,-1.322075 -2.484898,-3.014002 -2.974774,-3.85675 2.786239,1.14933 5.990924,3.136949 8.704525,3.535741 l -5.52341,-4.749726 c 3.59356,-0.357982 6.965193,1.031178 10.054828,2.721985 5.072792,2.917939 2.752892,6.578384 -2.471614,6.838946 -3.202811,-0.133073 -5.709857,-2.225728 -7.789555,-4.490196 z"
       id="path2933"
       sodipodi:nodetypes="cccccccccccccc" />
    <path
       style="fill:#00a100;fill-opacity:1;stroke:none"
       d="m 41.135104,62.065131 c 0,0 -13.196628,4.187537 -19.910557,-2.45311 -5.063409,-5.008142 -5.008636,-12.782871 5.119083,-10.071654 10.12772,2.711219 13.576288,8.922235 13.576288,8.922235 l -10.855805,-1.646291 12.070991,5.24882 z"
       id="path2935"
       sodipodi:nodetypes="cssccc" />
    <path
       style="font-size:medium;font-style:normal;font-variant:normal;font-weight:normal;font-stretch:normal;text-indent:0;text-align:start;text-decoration:none;line-height:normal;letter-spacing:normal;word-spacing:normal;text-transform:none;direction:ltr;block-progression:tb;writing-mode:lr-tb;text-anchor:start;color:#000000;fill:#5c2700;fill-opacity:1;fill-rule:nonzero;stroke:none;stroke-width:1.5;marker:none;visibility:visible;display:inline;overflow:visible;enable-background:accumulate;font-family:Bitstream Vera Sans;-inkscape-font-specification:Bitstream Vera Sans"
       d="m 21.076314,59.491928 c -6.413351,-6.702176 -3.097518,-12.709351 5.41812,-10.76757 2.601245,0.233795 13.383463,4.547367 13.34824,10.330714 L 29.754438,57.144708 41.370361,61.51464 c 0.607187,2.500833 -5.889485,2.266988 -7.648943,2.427302 -4.745546,0.339418 -9.06492,-1.31102 -12.645104,-4.450014 z m 12.587777,3.241397 c 2.421916,-0.12688 5.429548,-0.385787 6.750893,-0.700564 -3.836308,-1.709284 -8.920855,-3.035955 -11.929628,-5.392715 l 10.10018,1.015027 c -3.089815,-3.972005 -7.730474,-6.041991 -12.404854,-7.537561 -7.817973,-2.319321 -9.285666,3.538437 -4.531142,9.063542 3.210331,3.105884 7.730915,3.627316 12.014551,3.552271 z"
       id="path2937"
       sodipodi:nodetypes="cccccccccccccc" />
    <path
       sodipodi:nodetypes="cssccc"
       id="path2939"
       d="m 45.062035,52.256732 c 0,0 -8.171587,6.655383 -14.782023,3.831762 -4.985359,-2.129477 -7.120974,-7.649021 0.807341,-8.562042 7.928315,-0.91302 12.106838,2.519676 12.106838,2.519676 l -8.14594,1.870578 10.013784,0.340026 z"
       style="fill:#00a100;fill-opacity:1;stroke:none" />
    <path
       sodipodi:nodetypes="cccccccccccccc"
       id="path2941"
       d="m 30.141482,56.044929 c -6.414846,-2.951247 -5.747412,-8.131462 0.824417,-9.138358 1.906974,-0.561983 10.746788,-0.523643 12.339306,3.580609 l -7.676385,1.468953 9.44581,-0.154924 c 1.129285,1.600684 -3.535523,3.252083 -4.73632,3.857656 -3.264746,1.567503 -6.784292,1.607072 -10.196828,0.386064 z m 9.818224,-1.225689 c 1.679143,-0.767173 3.736027,-1.791629 4.583456,-2.384026 -3.194009,-0.137194 -7.164719,0.345589 -9.953947,-0.481434 l 7.434437,-2.10616 c -3.298345,-1.947892 -7.162685,-2.115494 -10.890248,-1.866998 -6.183496,0.544493 -5.584303,5.102048 -0.673043,7.683902 3.141435,1.301006 6.487674,0.405869 9.499345,-0.845284 z"
       style="font-size:medium;font-style:normal;font-variant:normal;font-weight:normal;font-stretch:normal;text-indent:0;text-align:start;text-decoration:none;line-height:normal;letter-spacing:normal;word-spacing:normal;text-transform:none;direction:ltr;block-progression:tb;writing-mode:lr-tb;text-anchor:start;color:#000000;fill:#5c2700;fill-opacity:1;fill-rule:nonzero;stroke:none;stroke-width:1.5;marker:none;visibility:visible;display:inline;overflow:visible;enable-background:accumulate;font-family:Bitstream Vera Sans;-inkscape-font-specification:Bitstream Vera Sans" />
    <path
       style="font-size:medium;font-style:normal;font-variant:normal;font-weight:normal;font-stretch:normal;text-indent:0;text-align:start;text-decoration:none;line-height:normal;letter-spacing:normal;word-spacing:normal;text-transform:none;direction:ltr;block-progression:tb;writing-mode:lr-tb;text-anchor:start;color:#000000;fill:#00a100;fill-opacity:1;fill-rule:nonzero;stroke:none;stroke-width:1.5;marker:none;visibility:visible;display:inline;overflow:visible;enable-background:accumulate;font-family:Bitstream Vera Sans;-inkscape-font-specification:Bitstream Vera Sans"
       d="m 58.79549,60.906251 c -1.847036,5.960071 -1.627565,8.983475 -1.881502,12.97854 -0.316431,-0.125147 -0.755303,-1.679665 -1.151941,-1.343932 -0.673052,5.248263 -0.402428,9.725213 -0.575971,13.324122 -0.445291,-9.002285 -1.811868,-17.678476 -4.415776,-15.474413 -0.625485,4.877352 -0.963517,8.888977 -1.151941,12.325773 -0.330685,-0.04249 -1.016328,0.05045 -2.188689,-2.34228 -2.354105,18.356609 0.504311,22.951459 0.883155,29.912069 0.358095,-2.70594 0.178943,-6.9823 2.307743,-4.51233 1.346413,-3.93957 3.396337,-3.65808 5.449793,-3.35541 1.109904,-2.32661 2.965711,-1.19663 4.14313,1.23692 0.653676,-8.674522 1.307353,-4.28331 1.961029,-5.04218 0.150232,-4.370408 1.597219,-4.352493 2.303883,-1.9199 2.432676,-3.316903 3.486581,-1.59656 4.358744,3.2404 0.09889,-1.7995 0.487326,-5.411468 2.05373,-0.82132 l 0.07999,-14.456302 -1.884702,-6.317044 2.111893,21.118926 c 0.48579,-4.363493 0.224094,-24.29288 -2.803057,-24.459556 -0.254171,1.981959 -0.461069,3.761227 -0.614368,5.414125 -0.679609,-3.616743 -1.258809,-2.188216 -2.611067,-7.103639 -0.261734,2.040921 -0.459336,3.874977 -0.614369,5.567717 C 64.151564,74.131208 63.462234,70.6415 61.94413,71.92649 61.828137,72.831008 61.730988,73.665868 61.636945,74.499159 61.232248,67.358445 60.559748,61.049057 58.79549,60.906251 z"
       id="path2981"
       sodipodi:nodetypes="ccccccccccccccccccccccccc" />
    <path
       style="font-size:medium;font-style:normal;font-variant:normal;font-weight:normal;font-stretch:normal;text-indent:0;text-align:start;text-decoration:none;line-height:normal;letter-spacing:normal;word-spacing:normal;text-transform:none;direction:ltr;block-progression:tb;writing-mode:lr-tb;text-anchor:start;color:#000000;fill:#5c2700;fill-opacity:1;fill-rule:nonzero;stroke:none;stroke-width:1.5;marker:none;visibility:visible;display:inline;overflow:visible;enable-background:accumulate;font-family:Bitstream Vera Sans;-inkscape-font-specification:Bitstream Vera Sans"
       d="m 58.795492,60.906251 c -1.847036,5.960071 -1.627567,8.983475 -1.881504,12.97854 -0.316431,-0.125147 -0.755303,-1.679665 -1.151941,-1.343932 -0.673052,5.248263 -0.402428,9.725213 -0.575971,13.324122 -0.445291,-9.002285 -1.811868,-17.678476 -4.415776,-15.474413 -0.625485,4.877352 -0.963517,8.888977 -1.151941,12.325773 -0.330685,-0.04249 -1.016328,0.05045 -2.188689,-2.34228 -2.354105,18.356609 0.504311,22.951459 0.883155,29.912069 l 0.422379,-0.49917 c -0.230388,-9.02354 -2.10368,-15.230676 -0.691165,-27.070619 2.072556,5.299722 1.955032,16.653499 2.457475,23.806789 0.285711,0.31108 0.0768,-0.1536 0.499175,-0.1536 l 0.652767,-31.67838 c 2.769522,9.242131 3.233465,18.634848 4.031794,27.87698 0.908159,1.43004 0.361195,4.43038 0.537573,6.91164 L 56.760396,108.827 56.606804,76.84144 c 0.871734,7.156817 4.353087,22.96726 3.071843,28.76013 l 1.38233,0.23039 C 59.702187,103.4778 59.962424,87.904565 58.872288,78.799741 l 0.0384,-16.203976 c 2.573173,10.040364 1.644292,20.46285 2.303883,30.718437 0.757047,2.03345 0.904436,4.834198 1.075145,7.142028 l 0.345583,-25.18911 c 1.992119,6.972624 1.314025,14.275473 1.843106,21.42611 l 0.383981,0.230389 0.460776,-19.506208 c 1.844628,4.687346 1.904751,9.622584 2.150291,14.55286 l 1.689514,11.058629 -0.0768,-24.689936 c 2.141643,7.14684 1.225767,14.279269 1.843106,21.426106 l 0.268786,-0.30718 c 0.485789,-4.363493 0.224094,-24.29288 -2.803057,-24.459556 -0.254172,1.981959 -0.461069,3.761227 -0.614369,5.414125 -0.679608,-3.616743 -1.258808,-2.188216 -2.611067,-7.103639 -0.261733,2.040921 -0.459335,3.874977 -0.614369,5.567717 C 64.151564,74.131208 63.462234,70.6415 61.94413,71.92649 61.828137,72.831008 61.730988,73.665868 61.636946,74.499159 61.232251,67.358445 60.55975,61.049057 58.795492,60.906251 z"
       id="path2943"
       sodipodi:nodetypes="ccccccccccccccccccccccccccccccccccccccc" />
    <path
       style="font-size:medium;font-style:normal;font-variant:normal;font-weight:normal;font-stretch:normal;text-indent:0;text-align:start;text-decoration:none;line-height:normal;letter-spacing:normal;word-spacing:normal;text-transform:none;direction:ltr;block-progression:tb;writing-mode:lr-tb;text-anchor:start;color:#000000;fill:#00a100;fill-opacity:1;fill-rule:nonzero;stroke:none;stroke-width:1.5;marker:none;visibility:visible;display:inline;overflow:visible;enable-background:accumulate;font-family:Bitstream Vera Sans;-inkscape-font-specification:Bitstream Vera Sans"
       d="m 94.64657,66.707025 c -2.477563,19.319306 -0.02463,22.712634 0.374083,30.038294 0.748372,-2.687073 0.699658,-7.765403 3.95098,-2.943624 -1.670971,-2.895038 -0.330921,-30.475491 -4.325063,-27.09467 z"
       id="path3018"
       sodipodi:nodetypes="cccc" />
    <path
       sodipodi:nodetypes="ccccccc"
       id="path2959"
       d="m 94.646573,66.707025 c -2.477563,19.319306 -0.02463,22.712634 0.37408,30.038294 l 0.43934,-0.53033 -0.08303,-25.996925 c 2.253958,7.521648 1.299429,15.043296 1.949144,22.564944 l 1.645526,1.018687 C 97.300662,90.906657 98.640712,63.326204 94.64657,66.707025 z"
       style="font-size:medium;font-style:normal;font-variant:normal;font-weight:normal;font-stretch:normal;text-indent:0;text-align:start;text-decoration:none;line-height:normal;letter-spacing:normal;word-spacing:normal;text-transform:none;direction:ltr;block-progression:tb;writing-mode:lr-tb;text-anchor:start;color:#000000;fill:#5c2700;fill-opacity:1;fill-rule:nonzero;stroke:none;stroke-width:1.5;marker:none;visibility:visible;display:inline;overflow:visible;enable-background:accumulate;font-family:Bitstream Vera Sans;-inkscape-font-specification:Bitstream Vera Sans" />
    <path
       style="font-size:medium;font-style:normal;font-variant:normal;font-weight:normal;font-stretch:normal;text-indent:0;text-align:start;text-decoration:none;line-height:normal;letter-spacing:normal;word-spacing:normal;text-transform:none;direction:ltr;block-progression:tb;writing-mode:lr-tb;text-anchor:start;color:#000000;fill:#00a100;fill-opacity:1;fill-rule:nonzero;stroke:none;stroke-width:1.5;marker:none;visibility:visible;display:inline;overflow:visible;enable-background:accumulate;font-family:Bitstream Vera Sans;-inkscape-font-specification:Bitstream Vera Sans"
       d="m 82.28125,27.46875 c -2.373572,0.192126 -2.331569,14.057226 -2.84375,22.0625 -0.05666,0.662512 -0.117672,1.304138 -0.15625,1.90625 -0.300253,-4.767006 -0.669289,-6.148749 -2.09375,-8.125 -0.142703,1.112757 -0.460067,2.736941 -0.5625,3.71875 -0.624378,-5.766367 -0.864587,-6.742094 -3.1875,-8.71875 -1.732752,19.400296 0.851106,22.695093 1.53125,30 0.80101,-1.439916 0.181793,-6.075341 2.65625,-3.75 0.717251,-1.215981 1.400266,-3.082442 2.34375,0 1.846226,-1.868858 2.161223,-3.209882 2.28125,0.03125 -0.548787,-2.739819 3.278182,-4.057588 2.96875,-0.9375 0.554715,-1.633245 1.580365,-1.759499 3.3125,0.375 -1.206767,-3.117232 6.219295,-21.074459 0.78125,-26.125 -0.821045,2.837524 -1.48082,5.31812 -2,7.53125 0.477548,-5.707729 0.453776,-10.22459 -1.5,-9.03125 -0.692349,2.392753 -1.276169,4.558451 -1.75,6.5 0.255215,-5.046657 -0.612231,-11.237559 -1.78125,-15.4375 z M 86,40 l 0,0 z"
       id="path2999"
       sodipodi:nodetypes="ccccccccccccccccccc" />
    <path
       style="font-size:medium;font-style:normal;font-variant:normal;font-weight:normal;font-stretch:normal;text-indent:0;text-align:start;text-decoration:none;line-height:normal;letter-spacing:normal;word-spacing:normal;text-transform:none;direction:ltr;block-progression:tb;writing-mode:lr-tb;text-anchor:start;color:#000000;fill:#5c2700;fill-opacity:1;fill-rule:nonzero;stroke:none;stroke-width:1.5;marker:none;visibility:visible;display:inline;overflow:visible;enable-background:accumulate;font-family:Bitstream Vera Sans;-inkscape-font-specification:Bitstream Vera Sans"
       d="m 82.28125,27.46875 c -2.373572,0.192126 -2.331569,14.057226 -2.84375,22.0625 -0.05666,0.662512 -0.117672,1.304138 -0.15625,1.90625 -0.300253,-4.767006 -0.680012,-6.142467 -2.104473,-8.118718 -0.142703,1.112757 -0.449344,2.730659 -0.551777,3.712468 -0.624378,-5.766367 -0.864587,-6.742094 -3.1875,-8.71875 -1.732752,19.400296 0.851106,22.695093 1.53125,30 l 0.40625,-0.53125 -1.09375,-26 c 1.168279,3.415077 1.657005,6.863256 1.9375,10.3125 L 77.625,64.5625 C 79.294249,65.766183 77.61238,52.727627 77.5625,46.625 l 2.40625,17.9375 c 1.536088,3.112269 0.570273,-16.156993 0.625,-17.34375 1.168713,5.483352 1.406604,11.432114 1.65625,17.375 L 86,40 C 87.07264,47.778493 85.745585,56.122175 85.232995,63.65441 87.511858,57.76853 88.088781,48.904257 89.5,41.5 c 1.07264,7.778493 -1.04991,15.061514 -1.5625,22.59375 l 0.584867,-0.07582 C 87.3156,60.900698 94.750545,42.956791 89.3125,37.90625 c -0.821045,2.837524 -1.48082,5.31812 -2,7.53125 0.477548,-5.707729 0.453776,-10.22459 -1.5,-9.03125 -0.692349,2.392753 -1.276169,4.558451 -1.75,6.5 0.255215,-5.046657 -0.612231,-11.237559 -1.78125,-15.4375 z M 82.25,31.25 82.1875,50.8125 c -0.255937,-3.426371 -0.684939,-6.227787 -1.53125,-6.5625 0.08902,-4.33217 0.29556,-8.66783 1.59375,-13 z"
       id="path2984"
       sodipodi:nodetypes="ccccccccccccccccccccccccccccc" />
    <path
       sodipodi:nodetypes="cssccc"
       id="path3014"
       d="m 116.17476,74.326992 c 0,0 -4.34978,8.933008 -11.12346,9.139519 -5.108475,0.155743 -9.123987,-3.718181 -2.70499,-7.643277 6.41899,-3.925095 11.35421,-2.646222 11.35421,-2.646222 l -6.22539,4.830397 8.69963,-3.680417 z"
       style="fill:#00a100;fill-opacity:1;stroke:none" />
    <path
       sodipodi:nodetypes="cccccccccccccc"
       id="path3016"
       d="m 104.91554,83.484188 c -6.657007,0.01979 -8.140507,-4.675537 -2.91894,-8.142972 1.40815,-1.236925 8.98404,-4.709803 11.97378,-1.831 l -5.98305,4.300675 8.01755,-3.878502 c 1.60068,0.921213 -1.73423,4.183612 -2.52111,5.177766 -2.1707,2.635409 -5.16527,4.065023 -8.56823,4.374033 z m 7.91143,-4.942016 c 1.13193,-1.322075 2.4849,-3.014002 2.97478,-3.85675 -2.78624,1.14933 -5.99093,3.136949 -8.70453,3.535741 l 5.52341,-4.749726 c -3.59356,-0.357982 -6.96519,1.031178 -10.05483,2.721985 -5.072787,2.917939 -2.752884,6.578384 2.47162,6.838946 3.20281,-0.133073 5.70986,-2.225728 7.78955,-4.490196 z"
       style="font-size:medium;font-style:normal;font-variant:normal;font-weight:normal;font-stretch:normal;text-indent:0;text-align:start;text-decoration:none;line-height:normal;letter-spacing:normal;word-spacing:normal;text-transform:none;direction:ltr;block-progression:tb;writing-mode:lr-tb;text-anchor:start;color:#000000;fill:#5c2700;fill-opacity:1;fill-rule:nonzero;stroke:none;stroke-width:1.5;marker:none;visibility:visible;display:inline;overflow:visible;enable-background:accumulate;font-family:Bitstream Vera Sans;-inkscape-font-specification:Bitstream Vera Sans" />
    <path
       style="font-size:medium;font-style:normal;font-variant:normal;font-weight:normal;font-stretch:normal;text-indent:0;text-align:start;text-decoration:none;line-height:normal;letter-spacing:normal;word-spacing:normal;text-transform:none;direction:ltr;block-progression:tb;writing-mode:lr-tb;text-anchor:start;color:#000000;fill:#5c2700;fill-opacity:1;fill-rule:nonzero;stroke:none;stroke-width:1.5;marker:none;visibility:visible;display:inline;overflow:visible;enable-background:accumulate;font-family:Bitstream Vera Sans;-inkscape-font-specification:Bitstream Vera Sans"
       d="m 48.962933,39.507564 c -1.36535,0.643627 -2.449107,1.988517 -3.891255,7.125047 -0.52618,-1.626542 -1.05773,-4.257263 -2.359164,-5.077212 -0.200322,2.964046 0.634059,7.623579 1.201824,10.287293 l 0.284397,0.05542 -0.75189,-8.408347 c 0.181082,0.539148 2.076383,8.62768 2.370165,8.140686 1.11813,-2.197671 1.028467,-11.036505 2.926891,-11.567487 l -0.831198,11.036967 c 1.260593,-0.568992 2.065672,-6.343345 3.73764,-6.435691 1.713025,1.146335 0.360897,4.808938 0.430426,6.276264 1.774043,-0.394707 3.244606,-3.791044 5.234165,-3.082291 0.05815,1.226054 -0.495513,3.539892 0.186221,4.172691 l 3.393931,-1.881639 c 0.19887,3.151638 -0.178882,4.82859 -0.888892,5.65581 l 0.187764,0.183198 c 2.002317,-3.061492 1.282861,-4.314838 1.457131,-6.34265 -1.725301,-0.447364 -2.578633,0.647338 -3.520903,1.584755 l 0.02444,-3.593124 c -2.199018,-1.150295 -4.030157,0.654218 -5.660529,0.76381 0.266304,-1.605997 0.703448,-2.203985 -0.255027,-4.222035 -1.255965,-0.483797 -3.439441,3.396858 -3.997417,6.518009 0.01875,-1.961834 1.887151,-9.767696 0.72128,-11.189474 z"
       id="path3042"
       sodipodi:nodetypes="ccccccccccccccccccccccc" />
  </g>
  <metadata
     id="metadata38">
    <rdf:RDF>
      <cc:Work
         rdf:about="">
        <dc:title>hill - RPG map elements</dc:title>
        <dc:description />
        <dc:subject>
          <rdf:Bag>
            <rdf:li>mapsym</rdf:li>
          </rdf:Bag>
        </dc:subject>
        <dc:publisher>
          <cc:Agent>
            <dc:title />
          </cc:Agent>
        </dc:publisher>
        <dc:creator>
          <cc:Agent>
            <dc:title>Nicu Buculei</dc:title>
          </cc:Agent>
        </dc:creator>
        <dc:rights>
          <cc:Agent>
            <dc:title>Nicu Buculei</dc:title>
          </cc:Agent>
        </dc:rights>
        <dc:date />
        <dc:format>image/svg+xml</dc:format>
        <dc:type
           rdf:resource="http://purl.org/dc/dcmitype/StillImage" />
        <cc:license
           rdf:resource="http://web.resource.org/cc/PublicDomain" />
        <dc:language>en</dc:language>
      </cc:Work>
      <cc:License
         rdf:about="http://web.resource.org/cc/PublicDomain">
        <cc:permits
           rdf:resource="http://web.resource.org/cc/Reproduction" />
        <cc:permits
           rdf:resource="http://web.resource.org/cc/Distribution" />
        <cc:permits
           rdf:resource="http://web.resource.org/cc/DerivativeWorks" />
      </cc:License>
    </rdf:RDF>
  </metadata>
</svg>
