<?xml version="1.0" encoding="UTF-8" standalone="no"?>
<!-- Created with Inkscape (http://www.inkscape.org/) -->

<svg
   xmlns:dc="http://purl.org/dc/elements/1.1/"
   xmlns:cc="http://creativecommons.org/ns#"
   xmlns:rdf="http://www.w3.org/1999/02/22-rdf-syntax-ns#"
   xmlns:svg="http://www.w3.org/2000/svg"
   xmlns="http://www.w3.org/2000/svg"
   xmlns:xlink="http://www.w3.org/1999/xlink"
   xmlns:sodipodi="http://sodipodi.sourceforge.net/DTD/sodipodi-0.dtd"
   xmlns:inkscape="http://www.inkscape.org/namespaces/inkscape"
   width="744.09448819"
   height="1052.3622047"
   id="svg2"
   version="1.1"
   inkscape:version="0.47 r22583"
   sodipodi:docname="icon.svg"
   inkscape:export-filename="/home/nailor/code/towerdefence/gfx/icon.png"
   inkscape:export-xdpi="90"
   inkscape:export-ydpi="90">
  <defs
     id="defs4">
    <linearGradient
       id="linearGradient3613">
      <stop
         style="stop-color:#0000e6;stop-opacity:1;"
         offset="0"
         id="stop3615" />
      <stop
         style="stop-color:#dd0000;stop-opacity:0;"
         offset="1"
         id="stop3617" />
    </linearGradient>
    <linearGradient
       id="linearGradient5177">
      <stop
         style="stop-color:#000000;stop-opacity:1;"
         offset="0"
         id="stop5179" />
      <stop
         style="stop-color:#7e7e7e;stop-opacity:1;"
         offset="1"
         id="stop5181" />
    </linearGradient>
    <inkscape:perspective
       sodipodi:type="inkscape:persp3d"
       inkscape:vp_x="0 : 526.18109 : 1"
       inkscape:vp_y="0 : 1000 : 0"
       inkscape:vp_z="744.09448 : 526.18109 : 1"
       inkscape:persp3d-origin="372.04724 : 350.78739 : 1"
       id="perspective10" />
    <inkscape:perspective
       id="perspective2828"
       inkscape:persp3d-origin="0.5 : 0.33333333 : 1"
       inkscape:vp_z="1 : 0.5 : 1"
       inkscape:vp_y="0 : 1000 : 0"
       inkscape:vp_x="0 : 0.5 : 1"
       sodipodi:type="inkscape:persp3d" />
    <inkscape:perspective
       id="perspective5110"
       inkscape:persp3d-origin="0.5 : 0.33333333 : 1"
       inkscape:vp_z="1 : 0.5 : 1"
       inkscape:vp_y="0 : 1000 : 0"
       inkscape:vp_x="0 : 0.5 : 1"
       sodipodi:type="inkscape:persp3d" />
    <inkscape:perspective
       id="perspective5110-4"
       inkscape:persp3d-origin="0.5 : 0.33333333 : 1"
       inkscape:vp_z="1 : 0.5 : 1"
       inkscape:vp_y="0 : 1000 : 0"
       inkscape:vp_x="0 : 0.5 : 1"
       sodipodi:type="inkscape:persp3d" />
    <inkscape:perspective
       id="perspective5141"
       inkscape:persp3d-origin="0.5 : 0.33333333 : 1"
       inkscape:vp_z="1 : 0.5 : 1"
       inkscape:vp_y="0 : 1000 : 0"
       inkscape:vp_x="0 : 0.5 : 1"
       sodipodi:type="inkscape:persp3d" />
    <radialGradient
       inkscape:collect="always"
       xlink:href="#linearGradient5177"
       id="radialGradient5199"
       cx="261.88205"
       cy="249.26303"
       fx="261.88205"
       fy="249.26303"
       r="128.32751"
       gradientTransform="matrix(0.64396438,-0.54747765,0.22714226,0.26717349,36.621176,327.27221)"
       gradientUnits="userSpaceOnUse" />
    <linearGradient
       inkscape:collect="always"
       xlink:href="#linearGradient5177"
       id="linearGradient3621"
       x1="143.99042"
       y1="217.213"
       x2="379.93732"
       y2="217.213"
       gradientUnits="userSpaceOnUse" />
  </defs>
  <sodipodi:namedview
     id="base"
     pagecolor="#ffffff"
     bordercolor="#666666"
     borderopacity="1.0"
     inkscape:pageopacity="0.0"
     inkscape:pageshadow="2"
     inkscape:zoom="1.4"
     inkscape:cx="22.505873"
     inkscape:cy="781.62183"
     inkscape:document-units="px"
     inkscape:current-layer="layer1"
     showgrid="false"
     inkscape:window-width="1680"
     inkscape:window-height="990"
     inkscape:window-x="0"
     inkscape:window-y="28"
     inkscape:window-maximized="1" />
  <metadata
     id="metadata7">
    <rdf:RDF>
      <cc:Work
         rdf:about="">
        <dc:format>image/svg+xml</dc:format>
        <dc:type
           rdf:resource="http://purl.org/dc/dcmitype/StillImage" />
        <dc:title />
      </cc:Work>
    </rdf:RDF>
  </metadata>
  <g
     inkscape:label="Layer 1"
     inkscape:groupmode="layer"
     id="layer1">
    <path
       style="fill:#ff0000"
       id="path2838"
       d="m 276.76965,231.24213 c -3.24471,-3.06469 -7.86836,-5.37033 -12.19893,-7.73428 -1.80771,-0.98678 -3.53869,-2.04045 -5.45211,-2.93729 -2.13296,-0.99974 -4.44162,-1.82729 -6.66243,-2.74093 -16.10237,-6.46098 -33.58909,-11.22076 -50.97975,-15.94936 -14.47229,-3.6889 -28.51611,-7.99883 -42.47998,-12.4334 -7.47444,-2.41094 -14.76264,-5.02676 -22.39617,-7.21362 -4.10002,-1.09681 -8.36815,-1.90921 -12.40459,-3.10732 0,0 54.31774,-23.80642 54.31774,-23.80642 l 0,0 c 4.16497,1.03285 8.33117,2.0821 12.31013,3.40082 7.19892,2.43415 13.881,5.48068 21.12964,7.86344 13.49333,4.5892 27.23622,8.82313 41.28687,12.63383 17.59906,4.97916 35.13911,10.11304 51.82647,16.32543 9.86774,3.90884 19.4824,8.24746 27.77469,13.53648 0,0 -56.07158,22.16262 -56.07158,22.16262 z" />
    <path
       style="fill:#ffff00"
       id="path2846"
       d="m 290.91042,257.95298 c -9.83075,-2.80787 -20.12418,-4.82908 -30.2653,-7.08699 -11.16108,-2.62264 -22.48152,-5.06689 -33.39207,-8.12326 -7.80759,-2.3607 -15.70038,-4.58633 -23.6527,-6.72617 -6.70773,-2.02269 -13.70256,-3.6058 -20.38615,-5.65508 -4.62355,-1.30276 -9.13537,-2.76978 -13.64653,-4.23375 -3.99554,-1.4758 -8.23874,-2.6204 -12.09819,-4.25186 -3.23492,-0.86135 -6.06219,-2.25992 -9.34343,-3.03959 -3.11124,-1.042 -6.31583,-1.91081 -9.39211,-3.01026 -3.99397,-1.14335 -7.76326,-2.56799 -11.83372,-3.59902 -3.99352,-0.70625 -7.77152,-1.82981 -11.77697,-2.5002 0,0 53.94188,-24.15244 53.94188,-24.15244 l 0,0 c 4.00976,0.96669 8.0868,1.82006 12.02062,2.9139 4.04201,1.23878 8.04714,2.52507 12.10096,3.74648 3.18174,0.90316 6.2736,1.9114 9.41939,2.86702 3.22374,1.14788 6.49382,2.23874 9.62847,3.48936 3.81554,1.38732 7.68876,2.71086 11.58662,3.99492 4.49797,1.38089 8.90239,2.88496 13.40002,4.26695 6.55348,1.97409 13.20942,3.80393 19.81898,5.69496 7.90444,2.17363 15.72774,4.46015 23.49897,6.83286 10.62852,2.93121 21.24648,5.91884 32.24621,8.20743 10.67068,2.21379 21.38104,4.3606 32.19417,6.25467 0,0 -54.06912,24.11007 -54.06912,24.11007 z" />
    <path
       style="fill:#00ff00"
       id="path2852"
       d="m 299.43575,280.45158 c -7.7103,-1.87229 -15.42684,-3.75175 -23.02393,-5.82705 -9.66639,-2.58534 -19.19078,-5.38304 -28.9232,-7.85794 -11.22975,-3.02776 -22.62207,-5.78531 -34.08633,-8.38489 -10.28293,-2.44823 -20.77584,-4.46495 -31.05157,-6.92996 -4.77498,-1.09322 -9.77912,-1.72853 -14.52421,-2.86177 -1.50579,-0.5082 -3.2743,-0.41874 -4.84482,-0.7198 -1.40122,-0.26861 -2.64747,-0.71918 -4.08653,-0.94332 -3.02739,-0.0209 -5.86495,-0.59894 -8.83748,-0.91589 -3.41043,-0.28983 -6.85729,-0.28409 -10.28913,-0.3038 -0.66299,0 -1.32933,0.0447 -1.98899,2e-5 -1.35418,-0.0918 -2.66963,-0.35948 -4.01289,-0.50693 -1.83758,-0.20172 -3.37815,-0.28206 -5.13103,-0.72442 -2.72556,-0.53063 -5.19454,-1.36139 -8.02478,-1.64234 -1.84392,-0.59387 -0.94796,-0.34062 -2.67758,-0.77598 0,0 53.12273,-24.07524 53.12273,-24.07524 l 0,0 c 1.51332,0.36332 0.76873,0.23224 2.22596,0.41283 2.66467,0.59205 5.26534,1.28726 8.02456,1.66554 3.37597,0.17186 6.70008,0.72004 10.11492,0.53789 3.68686,0.0864 7.37009,0.22454 10.97806,0.78821 3.14336,0.41741 6.37657,0.47584 9.39455,1.25855 2.89036,0.70425 5.91183,1.08707 8.78711,1.83874 4.76912,0.92239 9.38558,2.18215 14.04365,3.32384 9.8435,2.62869 19.76728,5.10204 29.84925,7.29361 11.66924,2.62206 23.3259,5.28663 34.79419,8.28655 9.68546,2.56082 19.24626,5.3254 28.95697,7.84343 7.79831,1.91565 15.6674,3.85978 23.87974,4.80124 0,0 -52.66922,24.41888 -52.66922,24.41888 z" />
    <path
       style="fill:#0000ff"
       id="path2860"
       d="m 315.05204,299.12521 c -8.27057,-2.77673 -17.04342,-4.81803 -25.86169,-6.61814 -10.01854,-2.40137 -20.4658,-3.82206 -30.54034,-6.07674 -12.00501,-2.13833 -23.99178,-4.30285 -36.17017,-5.93621 -8.56692,-0.77203 -16.95683,-2.17453 -25.19034,-3.93991 -4.65287,-1.13564 -9.12641,-2.62495 -13.97256,-3.34175 -2.503,-1.10487 -5.53289,-0.90763 -8.19266,-1.57752 -3.2008,-0.33723 -6.29134,-0.96084 -9.48059,-1.36249 -1.39382,-0.40385 -2.78388,-0.8789 -4.28886,-1.06527 -0.42916,-0.0532 -0.88026,-0.0148 -1.30144,-0.0923 -2.00964,-0.56106 -1.00531,-0.3369 -3.00617,-0.68658 -3.726,-0.26695 -7.20465,-1.20388 -10.56929,-2.29381 -3.11535,-0.77121 -6.09177,-1.72617 -9.38221,-2.09257 -1.35691,-0.23601 -2.82163,0.008 -4.18049,-0.14808 -1.53321,-0.17569 -3.03723,-0.55898 -4.58851,-0.73676 -2.49314,-0.29729 -4.84719,-0.88237 -7.38544,-1.11208 0,0 51.54713,-24.59819 51.54713,-24.59819 l 0,0 c 2.44581,0.42015 4.86125,0.8689 7.36465,1.09004 3.00023,0.42687 6.08233,0.44209 9.00148,1.14545 3.28779,0.78701 6.49632,1.72236 9.72279,2.61821 3.38378,0.77868 6.82698,1.21542 10.27413,1.83206 2.76846,0.57296 5.55911,1.12552 8.34536,1.63906 3.23877,0.53963 6.54021,0.82479 9.74454,1.46996 2.86435,0.26295 5.39102,1.20571 8.12818,1.78459 4.53104,1.16112 8.91836,2.57667 13.52128,3.61103 7.87027,1.65267 15.82889,3.02874 23.92215,4.07964 12.25252,1.95626 24.46681,4.02079 36.67739,6.09453 10.22839,1.88438 20.37777,3.95654 30.4688,6.1603 9.19983,2.0088 18.32204,4.16624 27.46565,6.28987 0,0 -52.07277,23.86364 -52.07277,23.86364 z" />
    <path
       style="fill:#ff00ff"
       id="path2864"
       d="m 309.03562,316.45165 c -9.76452,-0.10453 -19.42856,-0.4579 -29.08801,-1.38417 -13.22759,-1.45905 -26.1478,-3.78603 -39.1021,-5.96706 -17.52786,-2.7892 -35.08252,-5.50687 -52.63115,-8.24346 -8.45603,-1.58122 -17.11218,-2.83831 -25.45157,-4.64973 -3.64128,-0.58208 -7.04561,-1.5565 -10.78205,-1.88778 -3.37399,-0.60679 -6.0347,-2.11902 -9.27456,-2.88155 -2.44086,-0.99249 -4.89525,-2.00906 -7.55503,-2.76284 -2.6951,-0.66168 -5.26606,-1.5024 -8.01226,-2.12113 -1.75602,-0.48329 -3.77581,-0.17221 -5.57479,-0.41433 -1.04151,-0.14018 -2.0044,-0.45311 -3.02312,-0.64788 -1.27502,-0.21391 -2.58951,-0.25842 -3.89908,-0.30998 0,0 56.38846,-24.78389 56.38846,-24.78389 l 0,0 c 1.46818,0.20606 2.92792,0.42832 4.36725,0.70467 3.0433,0.43244 6.22987,0.54005 9.03609,1.5345 2.80065,0.79389 5.61317,1.55977 8.33447,2.45832 2.48534,0.89792 4.96512,1.81078 7.49595,2.65129 2.63435,0.95624 5.29129,1.86823 8.36925,2.12361 3.64452,0.7366 7.23455,1.57805 10.82688,2.40693 7.7896,1.72788 15.46952,3.65374 23.38838,5.1501 17.27593,3.14394 34.73046,5.85143 52.29626,8.29087 13.13885,1.88727 26.24423,3.95797 39.60193,5.16087 9.94626,0.64689 19.92192,0.77862 29.90712,0.34763 0,0 -55.61832,25.22501 -55.61832,25.22501 z" />
    <path
       style="fill:url(#radialGradient5199);fill-opacity:1"
       id="path2822-5"
       d="m 133.55454,349.3154 c 8.73273,-10.02099 15.63191,-21.40659 22.49385,-32.69242 7.80988,-12.93948 14.45794,-26.56741 19.43663,-40.80013 3.01021,-8.6054 4.58485,-14.77895 7.04192,-23.56073 4.18152,-15.6067 7.44199,-31.42849 11.2484,-47.12176 1.76286,-7.26792 3.71736,-14.49704 5.63284,-21.72703 4.31504,-15.9467 8.63959,-31.90959 14.1953,-47.49131 2.09156,-6.00691 4.36308,-11.96232 7.26522,-17.64217 20.06981,-11.6949 39.84882,-23.883685 60.20943,-35.084709 0.65307,-0.359274 1.46765,0.401528 2.08789,0.812979 3.17264,2.104672 4.94468,5.613739 6.44651,8.911419 2.5301,8.065191 4.87415,16.183511 7.49389,24.223691 3.93216,11.50268 8.44968,22.80271 12.91065,34.11528 4.38979,12.49335 11.42215,23.77617 17.48552,35.50166 5.60145,10.98749 11.26342,21.93452 17.39109,32.64981 6.1167,10.57555 13.06271,20.65058 19.48627,31.04127 5.83353,9.33981 10.64979,19.23282 16.11051,28.78103 1.85903,3.31019 3.76356,6.5972 5.75811,9.831 0.88413,1.43339 1.94198,2.77202 2.68646,4.27976 0.3735,0.7564 0.60709,1.57186 0.91063,2.35779 0.11394,0.96916 0.45296,1.93801 0.34185,2.90748 -0.11523,1.00515 -0.12468,2.34187 -1.00416,2.87019 -20.17993,12.12228 -40.80531,23.52941 -61.54599,34.70434 -1.13003,0.60886 -2.55658,0.33149 -3.83143,0.52051 -8.4207,1.24839 -1.3202,0.4022 -11.06768,1.40969 -20.47713,2.3128 -41.13776,2.71569 -61.72883,3.20863 -18.29097,0.51484 -36.58445,0.94896 -54.87158,1.58596 -6.04554,0.17628 -12.08511,-0.12962 -18.12556,-0.29654 -3.40813,0.0576 -6.88685,0.6142 -10.10402,1.75485 -1.77489,0.41215 -3.49482,1.02988 -5.24748,1.50248 -2.01674,0.54379 -3.05072,0.42613 -5.03472,1.33284 -0.44663,0.15797 -0.89325,0.31592 -1.33988,0.47387 0,0 54.92231,-41.65655 54.92231,-41.65655 l 0,0 c 0.43935,-0.1106 0.87871,-0.2212 1.31808,-0.33179 3.50225,-0.47502 6.82092,-1.83086 10.32285,-2.36941 3.79201,-0.45836 7.59867,-0.74136 11.40606,-0.25688 5.2126,0.49653 10.38859,1.35743 15.63182,1.54048 17.21696,0.62828 34.45105,0.84461 51.67748,0.46867 21.43995,-0.75869 42.96481,-1.68644 64.04126,-5.94469 4.23594,-0.92434 7.85455,-1.57036 11.92502,-2.95187 1.29829,-0.44065 4.97101,-2.27415 3.79373,-1.57966 -79.87708,47.12089 -76.2167,28.56605 -52.69699,32.92501 0.13045,-0.25997 0.42573,-0.49212 0.39135,-0.7799 -0.10215,-0.85497 -1.73542,-4.01932 -1.95465,-4.48192 -1.62227,-3.42312 -3.31608,-6.80967 -4.91706,-10.24288 -5.00755,-9.6681 -9.36443,-19.67524 -15.10794,-28.96125 -3.23469,-5.31922 -6.77867,-10.388 -10.17596,-15.60461 -3.08903,-4.74326 -3.39017,-5.44837 -6.26676,-10.29509 -1.04799,-1.76572 -2.10817,-3.52445 -3.16227,-5.28666 -6.22738,-10.78637 -11.89876,-21.82583 -17.36229,-33.00193 -6.13127,-11.91993 -12.90663,-23.55971 -17.71356,-36.09003 -4.55244,-11.32812 -9.43058,-22.52613 -13.96603,-33.86158 -2.79501,-7.52965 -5.3504,-15.14854 -8.46739,-22.55902 -0.88831,-1.40583 -2.00787,-3.31909 -2.50275,-2.64301 -0.20702,0.28282 0.0843,0.70208 0.019,1.04427 -0.0751,0.39233 -0.78396,1.32045 -0.4321,1.11989 19.36173,-11.03527 38.4629,-22.50446 57.69436,-33.756685 -1.53334,0.862078 -2.08462,1.003435 -3.27273,2.485247 -0.60739,0.757527 -1.06563,1.620222 -1.55995,2.453075 -2.22156,3.743033 -4.18385,7.639763 -6.04305,11.564503 -3.03283,6.543 -5.94399,13.14311 -8.38813,19.92549 -3.35258,9.30341 -6.12636,18.81246 -9.05285,28.24791 -2.09778,7.17485 -4.29778,14.52157 -6.19718,21.74838 -4.13788,15.74371 -7.40673,31.69697 -11.52894,47.44515 -1.8866,7.21433 -4.28167,16.70679 -6.49429,23.84747 -4.42202,14.27104 -10.54023,27.97707 -17.61887,41.16403 -5.60849,10.44291 -11.36223,20.80594 -17.14164,31.15789 0,0 -63.85149,27.15822 -63.85149,27.15822 z" />
    <path
       style="fill:url(#linearGradient3621);fill-opacity:1.0;opacity:1;stroke:none"
       id="path2822"
       d="m 143.99041,341.98622 c 8.02815,-9.39359 14.37066,-20.06633 20.67895,-30.64557 7.17974,-12.12935 13.29141,-24.90403 17.86839,-38.24565 2.76734,-8.06662 4.21492,-13.85365 6.47375,-22.08561 3.84413,-14.62957 6.84153,-29.46076 10.34083,-44.17149 1.62061,-6.81288 3.41742,-13.58939 5.17835,-20.36671 3.96688,-14.94828 7.94249,-29.91176 13.04995,-44.51791 1.92281,-5.63082 4.01105,-11.21336 6.67903,-16.5376 18.45048,-10.96269 36.63363,-22.38834 55.35145,-32.888064 0.60039,-0.336786 1.34924,0.376383 1.91943,0.762079 2.91665,1.972895 4.54572,5.262255 5.92638,8.353475 2.32595,7.56023 4.48089,15.17026 6.88925,22.70706 3.61489,10.7825 7.76792,21.37504 11.86896,31.97933 4.0356,11.71115 10.50055,22.28756 16.0747,33.27893 5.14949,10.29957 10.35464,20.5612 15.9879,30.60562 5.62317,9.91341 12.00875,19.35765 17.91402,29.09778 5.36285,8.75505 9.79052,18.02868 14.81064,26.97906 1.70904,3.10295 3.4599,6.18417 5.29353,9.2155 0.81277,1.34365 1.78527,2.59846 2.4697,4.01181 0.34335,0.70904 0.5581,1.47344 0.83715,2.21017 0.10475,0.90848 0.41643,1.81667 0.31426,2.72545 -0.10592,0.94221 -0.11461,2.19524 -0.92314,2.69048 -18.55171,11.36331 -37.51294,22.05625 -56.58017,32.53152 -1.03885,0.57073 -2.35029,0.31074 -3.52228,0.48791 -7.74128,1.17024 -1.2137,0.37703 -10.1747,1.32144 -18.82493,2.168 -37.81857,2.54566 -56.74825,3.00774 -16.81517,0.4826 -33.63265,0.88954 -50.44429,1.48666 -5.55775,0.16524 -11.11002,-0.12149 -16.66311,-0.27797 -3.13314,0.054 -6.33118,0.57574 -9.28877,1.64498 -1.63168,0.38634 -3.21284,0.9654 -4.82409,1.40841 -1.85402,0.50975 -2.80457,0.39945 -4.6285,1.2494 -0.41059,0.14807 -0.82118,0.29613 -1.23177,0.44419 0,0 50.49091,-39.04845 50.49091,-39.04845 l 0,0 c 0.40392,-0.10368 0.80783,-0.20735 1.21175,-0.31103 3.21967,-0.44527 6.27057,-1.71623 9.48995,-2.22105 3.48605,-0.42967 6.98557,-0.69495 10.48575,-0.2408 4.79203,0.46544 9.5504,1.27244 14.37059,1.44402 15.8278,0.58895 31.67138,0.79174 47.5079,0.43934 19.71007,-0.71119 39.4982,-1.58085 58.8741,-5.57249 3.89417,-0.86646 7.22081,-1.47205 10.96286,-2.76707 1.19354,-0.41306 4.56992,-2.13176 3.48764,-1.48075 -73.43223,44.17068 -70.06719,26.77754 -48.44515,30.86359 0.11992,-0.24369 0.39138,-0.46131 0.35976,-0.73106 -0.0939,-0.80145 -1.59538,-3.76768 -1.79693,-4.20132 -1.49138,-3.2088 -3.04852,-6.38332 -4.52033,-9.60157 -4.60353,-9.06279 -8.60886,-18.44339 -13.88896,-27.14801 -2.9737,-4.98619 -6.23174,-9.73761 -9.35492,-14.62761 -2.83979,-4.44628 -3.11663,-5.10726 -5.76113,-9.65052 -0.96343,-1.65517 -1.93807,-3.30378 -2.90711,-4.95567 -5.72493,-10.11103 -10.93872,-20.45932 -15.96143,-30.9357 -5.63657,-11.17362 -11.86526,-22.08465 -16.28434,-33.83045 -4.18513,-10.61886 -8.66968,-21.11577 -12.8392,-31.74152 -2.56948,-7.05823 -4.91869,-14.2001 -7.78419,-21.14661 -0.81664,-1.31781 -1.84587,-3.11128 -2.30082,-2.47753 -0.19031,0.26511 0.0774,0.65811 0.0174,0.97889 -0.0689,0.36775 -0.72071,1.23778 -0.39723,1.04978 17.79953,-10.34436 35.35953,-21.09547 53.0393,-31.64321 -1.40962,0.80811 -1.91642,0.94061 -3.00867,2.32965 -0.55838,0.7101 -0.97965,1.51878 -1.43409,2.29949 -2.04231,3.50868 -3.84628,7.16144 -5.55548,10.84046 -2.78811,6.13334 -5.46439,12.32022 -7.71131,18.67796 -3.08209,8.72092 -5.63206,17.63462 -8.32244,26.47932 -1.92852,6.72563 -3.95102,13.61239 -5.69716,20.38673 -3.80401,14.75801 -6.80913,29.71243 -10.59873,44.47464 -1.73438,6.76264 -3.93621,15.66078 -5.9703,22.35439 -4.06523,13.37753 -9.68979,26.22543 -16.19729,38.58676 -5.15598,9.78909 -10.44548,19.5033 -15.75858,29.20712 0,0 -58.69966,25.45786 -58.69966,25.45786 z" />
  </g>
</svg>
